# xmcd
#
# Track frame offsets:
# 150
# 14912
# 38829
# 59569
# 80961
# 97373
# 112384
# 121670
# 147041
# 167295
# 183152
# 195645
# 210288
# 229695
# 248513
# 261680
# 274732
# 291351
#
# Disc length: 4110 seconds
#
# Revision: 0
# Processed by: cddbd v1.5PL3 Copyright (c) Steve Scherf et al.
# Submitted via: Audion 3.0.2 (http://www.panic.com/audion/)
#
DISCID=12100c12
DTITLE=? - ?
DYEAR=1900
DGENRE=
TTITLE0=????????
TTITLE1=????????
TTITLE2=????????
TTITLE3=????????
TTITLE4=????????
TTITLE5=????????
TTITLE6=????????
TTITLE7=????????
TTITLE8=????????
TTITLE9=????????
TTITLE10=????????
TTITLE11=????????
TTITLE12=????????
TTITLE13=????????
TTITLE14=????????
TTITLE15=????????
TTITLE16=????????
TTITLE17=????????
EXTD=
EXTT0=
EXTT1=
EXTT2=
EXTT3=
EXTT4=
EXTT5=
EXTT6=
EXTT7=
EXTT8=
EXTT9=
EXTT10=
EXTT11=
EXTT12=
EXTT13=
EXTT14=
EXTT15=
EXTT16=
EXTT17=
PLAYORDER=
